<svg width="274" height="96" viewBox="0 0 274 96" fill="none" xmlns="http://www.w3.org/2000/svg">
<path d="M246.801 15.7352C247.799 15.8852 248.657 16.7126 248.844 17.7032C249.591 17.7272 250.202 18.269 250.787 18.734C251.371 19.199 252.114 19.6352 252.826 19.4096L252.555 17.363C252.494 16.9052 252.429 16.4336 252.195 16.0352C251.862 15.467 251.244 15.1394 250.657 14.84C249.96 14.4848 249.25 14.1248 248.48 13.9844C247.71 13.844 246.858 13.952 246.255 14.4512C245.969 14.6888 245.746 15.1154 245.958 15.4208C246.135 15.6764 246.495 15.689 246.801 15.7352ZM254.198 16.3592C254.814 16.415 255.374 16.874 255.55 17.4668C255.575 17.552 255.592 17.6492 255.547 17.7266C255.487 17.8298 255.348 17.849 255.229 17.8448C255.036 17.8415 254.846 17.7967 254.672 17.7134C254.442 17.5967 254.262 17.4018 254.163 17.1638C254.067 16.9248 254.059 16.6592 254.141 16.415M259.125 40.0304C258.45 39.8858 257.721 39.236 257.34 38.6894C257.088 38.3288 256.914 37.9148 256.632 37.5776C256.319 37.205 255.892 36.9476 255.461 36.722C253.578 35.7405 251.489 35.2218 249.366 35.2088C247.974 35.2004 245.877 35.012 245.077 33.5648C244.944 33.3254 245.063 33.0332 245.118 32.7644C245.172 32.4956 245.079 32.1284 244.805 32.1146C244.283 32.0882 244.162 32.711 243.504 32.6348C243.029 32.5796 242.387 32.2268 242.226 31.7564C242.079 31.328 242.229 30.3704 242.261 29.915C242.319 29.0726 245.587 29.1254 246.178 29.1746C246.067 29.8178 246.717 30.8228 247.436 30.2378C248.06 29.7314 247.287 28.3322 247.83 27.6326C248.539 26.7182 249.449 25.8056 250.248 24.9476C250.473 24.7058 250.699 24.4634 250.957 24.2576C251.52 23.8094 252.21 23.5562 252.833 23.1938C251.617 21.3134 249.413 20.1134 247.175 20.1128C247.002 20.1128 246.813 20.1254 246.686 20.2424C246.518 20.396 246.528 20.6582 246.552 20.8838C246.617 21.5054 246.694 22.1264 246.782 22.745L244.868 21.9848C244.395 21.797 243.898 21.5912 243.59 21.1856C243.282 20.78 243.262 20.1098 243.684 19.826C244.28 19.4258 245.183 20.054 245.771 19.6442C246.125 19.397 246.217 18.8516 246.616 18.6866C246.973 18.5396 247.359 18.7796 247.737 18.8636C248.114 18.9476 248.647 18.6434 248.465 18.3026C247.43 17.6132 246.249 16.892 245.03 17.1332C244.416 17.2544 243.875 17.6114 243.276 17.7944C241.833 18.2366 240.3 17.6288 238.914 17.0312C238.703 16.94 238.484 16.8446 238.329 16.6748C238.152 16.4822 238.078 16.217 237.927 16.0034C237.45 15.3272 235.673 15.329 235.789 15.296C235.64 15.2834 235.35 15.6206 235.201 15.6074C235.07 15.596 233.741 16.9556 233.498 17.1188C232.684 17.6672 231.767 17.8922 230.775 18.185C229.8 18.473 228.692 19.5848 230.21 19.6598C231.453 19.721 233.262 19.2764 234.472 18.998C234.695 18.947 234.939 18.8918 235.145 18.992C235.346 19.0898 235.455 19.3088 235.541 19.5158C236.297 21.3573 236.392 23.404 235.809 25.3076C235.61 25.9508 235.331 26.63 235.527 27.2744C235.811 28.2032 236.979 28.688 237.154 29.6432C237.229 30.0542 237.103 30.5018 237.273 30.8828C237.674 31.7762 238.895 31.3766 239.584 31.217C239.58 31.2182 239.686 32.6078 239.781 32.7602C240.116 33.2972 240.992 33.434 241.544 33.5882C243.579 34.1576 245.37 35.0234 247.205 36.0698C247.649 36.323 248.114 36.5954 248.372 37.037C249.065 38.219 247.917 39.6182 247.769 40.9802C247.73 41.3675 247.773 41.7588 247.897 42.1281C248.02 42.4973 248.221 42.836 248.486 43.1216C248.787 43.4432 249.165 43.6874 249.465 44.012C250.164 44.768 250.359 45.8792 250.249 46.9034C250.139 47.9276 249.762 48.9002 249.447 49.8806C248.857 51.7162 248.474 53.6123 248.307 55.5332C248.257 56.105 248.564 56.2538 249.077 56.0966C249.807 55.8734 249.675 55.184 249.86 54.6404C250.391 53.0744 252.081 51.6794 253.521 50.9972C254.162 50.6942 254.864 50.4644 255.361 49.9598C256.062 49.2482 256.215 48.1274 256.919 47.4176C257.517 46.8128 258.426 46.5986 259.031 45.9986C259.686 45.3476 259.914 44.3936 260.34 43.6004C260.66 43.0034 261.273 42.5156 261.544 41.915C262.353 40.1156 260.166 40.2536 259.125 40.0304Z" fill="white"/>
<path d="M244 10.5645C228.315 10.5645 215.6 23.2797 215.6 38.9649C215.6 54.6501 228.315 67.3652 244 67.3652C259.685 67.3652 272.4 54.6501 272.4 38.9649C272.4 23.2797 259.685 10.5645 244 10.5645ZM253.47 63.1719C252.799 62.9061 252.06 62.8125 251.35 62.9469C250.307 63.1443 249.212 63.767 248.256 63.302C247.31 62.8418 247.119 61.4709 247.637 60.5541C248.154 59.6373 249.153 59.1045 250.142 58.7463C249.47 58.2021 248.439 58.4546 247.742 58.9676C247.045 59.48 246.525 60.2072 245.814 60.701C245.104 61.1948 244.048 61.391 243.42 60.7952C243.399 61.2866 242.825 61.568 242.333 61.5662C241.841 61.5644 241.353 61.391 240.866 61.4564C240.208 61.544 239.672 62.0618 239.38 62.6582C239.106 63.2186 239.013 63.8462 238.933 64.466C227.014 62.1014 218 51.5678 218 38.9649C218 24.6279 229.664 12.9645 244 12.9645C249.191 12.9645 254.026 14.4993 258.089 17.1303C258.011 17.5407 257.982 17.9541 258.052 18.3669C258.213 19.3173 259.073 20.2227 260.025 20.0661L260.199 19.3755C261.4 19.6173 262.424 20.5881 262.728 21.7749C262.548 21.8948 262.406 22.0639 262.319 22.2621C262.232 22.4603 262.203 22.6794 262.237 22.8933C263.697 23.1675 264.638 24.6675 264.885 26.1327C265.133 27.5979 264.872 29.0967 264.888 30.5829C264.915 32.9199 265.859 35.4885 267.989 36.4503C268.581 36.7179 269.288 36.8246 269.889 36.6218C269.959 37.3946 270 38.1753 270 38.9655C270 49.9605 263.136 59.3769 253.47 63.1719Z" fill="white"/>
<path d="M36 0.5L174 25V53.5L36 76.5L31 65.5L18.5 58L10 49L9 32L16.5 20.5L29 14L36 0.5Z" fill="white" fill-opacity="0.25"/>
<path d="M60.2759 38.4992C60.2759 35.2347 59.6411 32.1166 58.3716 29.1451C57.1021 26.1735 55.3861 23.6066 53.2237 21.4442C51.0613 19.2818 48.4944 17.5658 45.5228 16.2963C42.5513 15.0268 39.4333 14.392 36.1688 14.392C32.9043 14.392 29.7862 15.0268 26.8147 16.2963C23.8431 17.5658 21.2762 19.2818 19.1138 21.4442C16.9514 23.6066 15.2354 26.1735 13.9659 29.1451C12.6964 32.1166 12.0616 35.2347 12.0616 38.4992C12.0616 41.7637 12.6964 44.8817 13.9659 47.8532C15.2354 50.8248 16.9514 53.3917 19.1138 55.5541C21.2762 57.7165 23.8431 59.4325 26.8147 60.702C29.7862 61.9715 32.9043 62.6063 36.1688 62.6063C39.4333 62.6063 42.5513 61.9715 45.5228 60.702C48.4944 59.4325 51.0613 57.7165 53.2237 55.5541C55.3861 53.3917 57.1021 50.8248 58.3716 47.8532C59.6411 44.8817 60.2759 41.7637 60.2759 38.4992ZM71.8272 50.0924C71.7156 50.5109 71.4366 50.7899 70.9902 50.9294L58.7692 54.9473V67.7542C58.7692 68.2006 58.5878 68.5633 58.2251 68.8424C57.8066 69.1214 57.402 69.1772 57.0114 69.0098L44.7904 65.0756L37.2569 75.4551C36.9779 75.8178 36.6152 75.9992 36.1688 75.9992C35.7223 75.9992 35.3596 75.8178 35.0806 75.4551L27.5471 65.0756L15.3261 69.0098C14.9355 69.1772 14.5309 69.1214 14.1124 68.8424C13.7497 68.5633 13.5683 68.2006 13.5683 67.7542V54.9473L1.34734 50.9294C0.900909 50.7899 0.621891 50.5109 0.510284 50.0924C0.370775 49.618 0.426578 49.2134 0.677694 48.8786L8.21118 38.4992L0.677694 28.1197C0.426578 27.757 0.370775 27.3524 0.510284 26.906C0.621891 26.4874 0.900909 26.2084 1.34734 26.0689L13.5683 22.0511V9.24414C13.5683 8.79771 13.7497 8.43499 14.1124 8.15597C14.5309 7.87695 14.9355 7.82115 15.3261 7.98856L27.5471 11.9227L35.0806 1.54325C35.3317 1.20843 35.6944 1.04102 36.1688 1.04102C36.6431 1.04102 37.0058 1.20843 37.2569 1.54325L44.7904 11.9227L57.0114 7.98856C57.402 7.82115 57.8066 7.87695 58.2251 8.15597C58.5878 8.43499 58.7692 8.79771 58.7692 9.24414V22.0511L70.9902 26.0689C71.4366 26.2084 71.7156 26.4874 71.8272 26.906C71.9668 27.3524 71.911 27.757 71.6598 28.1197L64.1264 38.4992L71.6598 48.8786C71.911 49.2134 71.9668 49.618 71.8272 50.0924Z" fill="white"/>
<path d="M232.5 40L175 25.5L176.5 44L175 53L232.5 40Z" fill="black" fill-opacity="0.5"/>
<g clip-path="url(#clip0_110_7)">
<path d="M179.331 32.4492C179.829 32.5 180.299 32.7093 180.67 33.0463C181.04 33.3834 181.293 33.8304 181.392 34.3218C181.49 34.8132 181.428 35.3232 181.215 35.7768C181.002 36.2305 180.649 36.6039 180.208 36.8423C179.818 36.6528 179.477 36.3755 179.212 36.0322C178.947 35.6889 178.765 35.2889 178.68 34.8635C178.595 34.4381 178.609 33.9988 178.722 33.58C178.835 33.1612 179.044 32.7742 179.331 32.4492Z" fill="white"/>
<path d="M173.013 24.9375C180.78 24.9375 187.076 31.2337 187.076 39C187.076 46.7663 180.78 53.0625 173.013 53.0625C165.247 53.0625 158.951 46.7663 158.951 39C158.951 31.2337 165.247 24.9375 173.013 24.9375ZM175.228 27.0131C176.801 28.565 178.054 30.4101 178.917 32.4441C178.573 32.4704 178.24 32.5721 177.94 32.7421C177.64 32.912 177.381 33.1459 177.182 33.4272C176.983 33.7084 176.849 34.0301 176.788 34.3693C176.728 34.7085 176.743 35.0569 176.832 35.3896C176.922 35.7223 177.084 36.0312 177.306 36.2943C177.529 36.5574 177.806 36.7682 178.119 36.9117C178.433 37.0552 178.774 37.1279 179.118 37.1246C179.463 37.1213 179.802 37.042 180.113 36.8925C180.201 37.5891 180.246 38.2987 180.246 39.0206C180.246 43.6931 178.347 47.9222 175.278 50.9775C177.315 50.594 179.221 49.6951 180.812 48.3666C180.56 47.8301 180.457 47.2353 180.515 46.6452C180.574 46.0551 180.791 45.4919 181.144 45.0154C181.497 44.5389 181.972 44.1669 182.52 43.9391C183.067 43.7112 183.666 43.6359 184.253 43.7212C184.881 42.2265 185.203 40.6212 185.201 39C185.201 33.0253 180.902 28.0547 175.228 27.0131ZM163.147 46.1569C164.405 47.8884 166.095 49.2596 168.048 50.1337C168.329 49.4777 168.388 48.748 168.217 48.0553C168.045 47.3626 167.653 46.7446 167.099 46.295C166.545 45.8454 165.859 45.5886 165.146 45.5637C164.433 45.5388 163.731 45.747 163.147 46.1569ZM172.531 30.5625C172.716 30.5625 172.899 30.5261 173.069 30.4555C173.24 30.3848 173.395 30.2812 173.526 30.1506C173.656 30.02 173.76 29.865 173.83 29.6944C173.901 29.5238 173.937 29.3409 173.937 29.1562C173.937 28.9716 173.901 28.7887 173.83 28.6181C173.76 28.4475 173.656 28.2925 173.526 28.1619C173.395 28.0313 173.24 27.9277 173.069 27.857C172.899 27.7864 172.716 27.75 172.531 27.75C172.158 27.75 171.801 27.8982 171.537 28.1619C171.273 28.4256 171.125 28.7833 171.125 29.1562C171.125 29.5292 171.273 29.8869 171.537 30.1506C171.801 30.4143 172.158 30.5625 172.531 30.5625ZM166.906 39C167.776 39 168.611 38.6543 169.226 38.0389C169.842 37.4236 170.187 36.589 170.187 35.7188C170.187 34.8485 169.842 34.0139 169.226 33.3986C168.611 32.7832 167.776 32.4375 166.906 32.4375C166.036 32.4375 165.201 32.7832 164.586 33.3986C163.971 34.0139 163.625 34.8485 163.625 35.7188C163.625 36.589 163.971 37.4236 164.586 38.0389C165.201 38.6543 166.036 39 166.906 39ZM173.469 46.5C174.09 46.5 174.686 46.2531 175.126 45.8135C175.566 45.374 175.812 44.7779 175.812 44.1562C175.812 43.5346 175.566 42.9385 175.126 42.499C174.686 42.0594 174.09 41.8125 173.469 41.8125C172.847 41.8125 172.251 42.0594 171.811 42.499C171.372 42.9385 171.125 43.5346 171.125 44.1562C171.125 44.7779 171.372 45.374 171.811 45.8135C172.251 46.2531 172.847 46.5 173.469 46.5Z" fill="white"/>
</g>
<path d="M28.475 94.12C28.0016 94.12 27.5716 94.03 27.185 93.85C26.7983 93.67 26.4716 93.43 26.205 93.13C25.9383 92.8233 25.7483 92.4867 25.635 92.12L26.355 91.85C26.5283 92.3567 26.7983 92.7433 27.165 93.01C27.5316 93.27 27.9683 93.4 28.475 93.4C28.795 93.4 29.075 93.35 29.315 93.25C29.5616 93.1433 29.7516 92.9967 29.885 92.81C30.0183 92.6233 30.085 92.4067 30.085 92.16C30.085 91.7933 29.985 91.51 29.785 91.31C29.585 91.11 29.2983 90.9567 28.925 90.85L27.585 90.45C27.0583 90.2967 26.6516 90.04 26.365 89.68C26.085 89.32 25.945 88.91 25.945 88.45C25.945 88.0567 26.0416 87.71 26.235 87.41C26.4283 87.1033 26.6916 86.8633 27.025 86.69C27.365 86.5167 27.7483 86.43 28.175 86.43C28.6216 86.43 29.0216 86.5133 29.375 86.68C29.735 86.84 30.0383 87.0533 30.285 87.32C30.5316 87.5867 30.7083 87.8833 30.815 88.21L30.115 88.49C29.955 88.05 29.705 87.7167 29.365 87.49C29.0316 87.2633 28.6383 87.15 28.185 87.15C27.8983 87.15 27.645 87.2 27.425 87.3C27.2116 87.4 27.045 87.5433 26.925 87.73C26.805 87.9167 26.745 88.1367 26.745 88.39C26.745 88.6967 26.8416 88.9733 27.035 89.22C27.2283 89.46 27.525 89.64 27.925 89.76L29.105 90.11C29.6916 90.2833 30.135 90.5333 30.435 90.86C30.735 91.1867 30.885 91.5967 30.885 92.09C30.885 92.49 30.7816 92.8433 30.575 93.15C30.375 93.45 30.0916 93.6867 29.725 93.86C29.365 94.0333 28.9483 94.12 28.475 94.12ZM35.5498 94.12C35.0231 94.12 34.5598 94.01 34.1598 93.79C33.7598 93.57 33.4498 93.27 33.2298 92.89C33.0098 92.5033 32.8998 92.0633 32.8998 91.57V86.55H33.6998V91.57C33.6998 91.93 33.7765 92.2467 33.9298 92.52C34.0898 92.7867 34.3065 92.9967 34.5798 93.15C34.8598 93.2967 35.1831 93.37 35.5498 93.37C35.9165 93.37 36.2365 93.2967 36.5098 93.15C36.7898 92.9967 37.0065 92.7867 37.1598 92.52C37.3198 92.2467 37.3998 91.93 37.3998 91.57V86.55H38.1998V91.57C38.1998 92.0633 38.0898 92.5033 37.8698 92.89C37.6498 93.27 37.3398 93.57 36.9398 93.79C36.5465 94.01 36.0831 94.12 35.5498 94.12ZM40.4318 94V86.55H41.1318L45.5018 92.82H45.2318V86.55H46.0318V94H45.3318L40.9618 87.69H41.2318V94H40.4318Z" fill="white" fill-opacity="0.75"/>
<path d="M156.989 94V86.55H157.689L160.489 90.61H160.099L162.889 86.55H163.589V94H162.789V87.63L163.049 87.73L160.309 91.7H160.269L157.539 87.73L157.789 87.63V94H156.989ZM169.359 94.12C168.839 94.12 168.352 94.0267 167.899 93.84C167.452 93.6467 167.059 93.38 166.719 93.04C166.379 92.6933 166.112 92.2867 165.919 91.82C165.725 91.3467 165.629 90.83 165.629 90.27C165.629 89.71 165.725 89.1967 165.919 88.73C166.112 88.2567 166.379 87.85 166.719 87.51C167.059 87.1633 167.452 86.8967 167.899 86.71C168.352 86.5233 168.839 86.43 169.359 86.43C169.879 86.43 170.362 86.5267 170.809 86.72C171.262 86.9067 171.659 87.1733 171.999 87.52C172.339 87.86 172.605 88.2633 172.799 88.73C172.992 89.1967 173.089 89.71 173.089 90.27C173.089 90.83 172.992 91.3467 172.799 91.82C172.605 92.2867 172.339 92.6933 171.999 93.04C171.659 93.38 171.262 93.6467 170.809 93.84C170.362 94.0267 169.879 94.12 169.359 94.12ZM169.359 93.37C169.792 93.37 170.185 93.29 170.539 93.13C170.899 92.97 171.209 92.7467 171.469 92.46C171.729 92.1733 171.929 91.8433 172.069 91.47C172.215 91.0967 172.289 90.6967 172.289 90.27C172.289 89.85 172.215 89.4533 172.069 89.08C171.929 88.7067 171.729 88.3767 171.469 88.09C171.209 87.8033 170.899 87.58 170.539 87.42C170.185 87.26 169.792 87.18 169.359 87.18C168.925 87.18 168.529 87.26 168.169 87.42C167.815 87.58 167.509 87.8033 167.249 88.09C166.989 88.3767 166.785 88.7067 166.639 89.08C166.499 89.4533 166.429 89.85 166.429 90.27C166.429 90.6967 166.499 91.0967 166.639 91.47C166.785 91.8433 166.989 92.1733 167.249 92.46C167.509 92.7467 167.819 92.97 168.179 93.13C168.539 93.29 168.932 93.37 169.359 93.37ZM178.638 94.12C178.118 94.12 177.631 94.0267 177.178 93.84C176.731 93.6467 176.338 93.38 175.998 93.04C175.658 92.6933 175.391 92.2867 175.198 91.82C175.005 91.3467 174.908 90.83 174.908 90.27C174.908 89.71 175.005 89.1967 175.198 88.73C175.391 88.2567 175.658 87.85 175.998 87.51C176.338 87.1633 176.731 86.8967 177.178 86.71C177.631 86.5233 178.118 86.43 178.638 86.43C179.158 86.43 179.641 86.5267 180.088 86.72C180.541 86.9067 180.938 87.1733 181.278 87.52C181.618 87.86 181.885 88.2633 182.078 88.73C182.271 89.1967 182.368 89.71 182.368 90.27C182.368 90.83 182.271 91.3467 182.078 91.82C181.885 92.2867 181.618 92.6933 181.278 93.04C180.938 93.38 180.541 93.6467 180.088 93.84C179.641 94.0267 179.158 94.12 178.638 94.12ZM178.638 93.37C179.071 93.37 179.465 93.29 179.818 93.13C180.178 92.97 180.488 92.7467 180.748 92.46C181.008 92.1733 181.208 91.8433 181.348 91.47C181.495 91.0967 181.568 90.6967 181.568 90.27C181.568 89.85 181.495 89.4533 181.348 89.08C181.208 88.7067 181.008 88.3767 180.748 88.09C180.488 87.8033 180.178 87.58 179.818 87.42C179.465 87.26 179.071 87.18 178.638 87.18C178.205 87.18 177.808 87.26 177.448 87.42C177.095 87.58 176.788 87.8033 176.528 88.09C176.268 88.3767 176.065 88.7067 175.918 89.08C175.778 89.4533 175.708 89.85 175.708 90.27C175.708 90.6967 175.778 91.0967 175.918 91.47C176.065 91.8433 176.268 92.1733 176.528 92.46C176.788 92.7467 177.098 92.97 177.458 93.13C177.818 93.29 178.211 93.37 178.638 93.37ZM184.407 94V86.55H185.107L189.477 92.82H189.207V86.55H190.007V94H189.307L184.937 87.69H185.207V94H184.407Z" fill="white" fill-opacity="0.75"/>
<path d="M227.197 94V86.55H229.757C230.244 86.55 230.671 86.6467 231.037 86.84C231.404 87.0267 231.687 87.2933 231.887 87.64C232.094 87.98 232.197 88.3767 232.197 88.83C232.197 89.2833 232.094 89.68 231.887 90.02C231.687 90.36 231.404 90.6267 231.037 90.82C230.677 91.0067 230.251 91.1 229.757 91.1H227.997V94H227.197ZM227.997 90.35H229.797C230.117 90.35 230.397 90.29 230.637 90.17C230.877 90.0433 231.064 89.8667 231.197 89.64C231.331 89.4067 231.397 89.1333 231.397 88.82C231.397 88.5067 231.331 88.2367 231.197 88.01C231.064 87.7833 230.877 87.61 230.637 87.49C230.397 87.3633 230.117 87.3 229.797 87.3H227.997V90.35ZM234.123 94V86.55H234.923V93.25H238.223V94H234.123ZM239.166 94L241.886 86.55H242.746L245.466 94H244.626L243.986 92.18H240.656L240.006 94H239.166ZM240.916 91.43H243.706L242.196 87.15H242.436L240.916 91.43ZM246.959 94V86.55H247.659L252.029 92.82H251.759V86.55H252.559V94H251.859L247.489 87.69H247.759V94H246.959ZM254.822 94V86.55H259.622V87.3H255.622V89.89H259.422V90.64H255.622V93.25H259.622V94H254.822ZM262.735 94V87.3H260.675V86.55H265.575V87.3H263.535V94H262.735Z" fill="white" fill-opacity="0.75"/>
<defs>
<clipPath id="clip0_110_7">
<rect width="30" height="30" fill="white" transform="translate(158 24)"/>
</clipPath>
</defs>
</svg>
